<?xml version="1.0" encoding="utf-8"?>
<!-- Generator: Adobe Illustrator 27.5.0, SVG Export Plug-In . SVG Version: 6.00 Build 0)  -->
<svg version="1.1" id="Capa_1" xmlns="http://www.w3.org/2000/svg" xmlns:xlink="http://www.w3.org/1999/xlink" x="0px" y="0px"
	 viewBox="0 0 2599 1733" style="enable-background:new 0 0 2599 1733;" xml:space="preserve">
<g>
	<g>
		<path style="fill:#E17D49;" d="M1104.552,1153.807c41.178,34.567,113.148,133.453,201.424,187.181
			c39.27,23.895,180.265,17.486,169.632,66.813c0.585,17.101-36.685,16.039-68.567,15.595c-39.58,0.618-71.772,1.024-124.497,0.367
			c-129.092-1.602-149.123,0.346-237.615-69.224L1104.552,1153.807z"/>
		<path style="fill:#FFDCA6;" d="M1305.975,1340.988c-3.151-1.91-6.217-4.013-9.326-6.039
			c-15.401,15.786-27.073,55.986-19.34,88.757c1.754,0.018,3.437,0.038,5.234,0.057c52.725,0.656,84.917,0.251,124.497-0.367
			c31.882,0.445,69.152,1.507,68.567-15.595C1486.241,1358.474,1345.245,1364.883,1305.975,1340.988z"/>
		<path style="fill:#EFC996;" d="M585.309,1122.641c75.841,108.076,35.217,242.415,8.784,285.161
			c-9.924,16.018,34.83,18.471,31.763,65.581c-33.72,2.894-51.669,1.813-82.984,0c-33.41-18.895-200.864-344.915-187.647-462.89
			L585.309,1122.641z"/>
		<path style="fill:#F6884F;" d="M1274.863,1117.333c0,36.494-11.91,70.963-19.071,94.16
			c-13.986,45.353-85.031,245.56-240.657,263.682c-184.943,21.482-392.925-73.837-530.025-183.012
			c-142.953-93.042-251.643-155.994-267.122-281.67c-0.692-63.087,28.559-143.469,98.576-199.106
			c46.764-37.19,99.913-47.072,151.964-40.221c29.877,3.956,59.366,13.375,87.077,26.383
			c65.579,30.647,293.807,208.215,391.929,235.911c6.212,1.793,11.886,2.951,17.036,3.416c68.705,6.54,85.753-19.685,132.278-38.908
			C1156.519,973.381,1274.863,1058.973,1274.863,1117.333z"/>
		<path style="fill:#FFDCA6;" d="M1096.848,998.007c-38.982,16.096-100.259,33.928-145.65,36.477
			c1.408,76.73,48.381,158.694,108.673,215.107c23.761,22.212,50.696,52.164,77.811,75.209c9.726,8.258,31.649,27.75,46.358,35.372
			c36.751-56.392,66.407-119.75,73.186-141.711c7.172-23.179,17.639-64.653,17.639-101.148
			C1274.863,1058.955,1156.5,973.363,1096.848,998.007z"/>
		<path style="fill:#F6884F;" d="M1024.867,1219.752c46.042,30.474,119.956,121.97,208.214,175.7
			c39.27,23.91,180.265,17.483,169.656,66.813c0.561,17.099-36.686,16.036-68.585,15.613c-39.586,0.597-71.778,1.003-124.485,0.346
			c-129.109-1.602-149.141,0.349-237.626-69.224L1024.867,1219.752z"/>
		<path style="fill:#FFDCA6;" d="M1233.082,1395.453c-3.15-1.912-6.217-3.995-9.32-6.024
			c-15.407,15.768-27.061,55.968-19.322,88.739c1.736,0.018,3.437,0.039,5.227,0.056c52.707,0.657,84.899,0.251,124.485-0.346
			c31.9,0.423,69.146,1.486,68.585-15.613C1413.347,1412.936,1272.351,1419.362,1233.082,1395.453z"/>
		
			<path style="fill:none;stroke:#DDB588;stroke-width:5.8357;stroke-linecap:round;stroke-linejoin:round;stroke-miterlimit:10;" d="
			M1387.318,1471.663c-0.274-7.527-7.065-14.571-13.604-16.54"/>
		
			<path style="fill:none;stroke:#DDB588;stroke-width:5.8357;stroke-linecap:round;stroke-linejoin:round;stroke-miterlimit:10;" d="
			M617.866,1469.695c1.349-7.43-5.018-17.949-10.27-22.04"/>
		
			<path style="fill:none;stroke:#DDB588;stroke-width:5.8357;stroke-linecap:round;stroke-linejoin:round;stroke-miterlimit:10;" d="
			M600.883,1471.025c1.349-7.447-5.012-17.967-10.27-22.057"/>
		
			<path style="fill:none;stroke:#DDB588;stroke-width:5.8357;stroke-linecap:round;stroke-linejoin:round;stroke-miterlimit:10;" d="
			M1399.265,1463.402c-0.274-7.525-7.065-14.569-13.605-16.538"/>
		
			<path style="fill:none;stroke:#DDB588;stroke-width:5.8357;stroke-linecap:round;stroke-linejoin:round;stroke-miterlimit:10;" d="
			M1461.985,1417.647c-0.269-7.527-7.083-14.572-13.605-16.541"/>
		
			<path style="fill:none;stroke:#DDB588;stroke-width:5.8357;stroke-linecap:round;stroke-linejoin:round;stroke-miterlimit:10;" d="
			M1472.23,1407.956c-0.268-7.524-7.077-14.568-13.604-16.538"/>
		<path style="fill:#E8E1E6;" d="M1267.142,1470.196c-45.935,2.026-91.595-8.819-137.446-11.925
			c-19.918-1.372-51.245-4.941-68.609-18.065c-21.308-16.096-37.521-40.836-54.384-80.4c-5.174,23.179,6.481,61.547,14.279,77.661
			c4.673,9.706-7.16,13.372-21.881,14.589c-18.725,1.525-55.488,2.7-91.44-3.416C743.461,1420.77,576.716,1336.59,547,1301.465
			c-32.15-37.98-34.107-90.165-39.18-137.275c-3.801-35.45-10.4-77.274-37.532-103.365c-4.118-3.974-8.474-7.641-12.937-11.194
			c26.386,73.222,43.965,160.705,17.221,235.661c3.491,2.279,7.005,4.556,10.55,6.871c37.676,29.99,80.77,58.883,127.205,84.666
			c-0.197-0.078-0.406-0.155-0.62-0.233c5.036,2.778,9.977,5.442,14.882,8.047c1.039,0.543,2.082,1.101,3.127,1.641
			c5.323,2.798,10.574,5.502,15.67,8.05c1.754,0.886,3.473,1.813,5.251,2.7c0.018-0.018,0.018-0.039,0.018-0.078
			c39.872,19.706,69.821,31.148,69.803,31.13c95.61,37.709,198.256,58.301,294.678,47.089c15.884-1.853,30.844-5.675,44.986-10.961
			c36.244,13.316,74.421,13.086,149.547,14.01c52.707,0.657,84.899,0.251,124.485-0.346c28.749,0.385,61.771,1.235,67.6-11.116
			C1355.628,1470.467,1314.694,1468.092,1267.142,1470.196z"/>
		<path style="fill:#F6884F;" d="M345.982,384.608c-34.776-1.584-100.127,39.678-121.895,59.42
			c-30.778,27.908-49.562,48.691-67.374,89.029c-8.216,18.623-12.931,36.068-9.07,46.701c2.298-2.76,19.936-16.365,21.786-19.029
			c-11.385,27.234-11.577,91.326,7.936,120.138c0.579-2.065,11.636-14.783,11.672-15.016c0.059,33.928,26.809,53.074,52.922,88.122
			c18.545,24.933,76.713,71.945,85.669,80.63l35.814-15.846c-34-46.472-65.208-114.305-72.774-169.888
			c-6.85-50.216-6.504-105.74,6.038-155.203c7.662-30.241,27.449-76.074,51.878-106.936"/>
		<g>
			<path style="fill:#63A6B5;" d="M1214.453,1190.88c-21.732,5.964-44.729,7.51-67.392,7.798
				c-33.463,0.463-69.015-7.005-96.917-26.574c-24.93-17.486-48.942-46.838-57.224-75.865c-5.096-17.892-8.856-36.939-10.86-55.446
				c-1.157-10.672,14.261-7.546,24.931-8.703c0.078-0.021,15.515-3.939,16.672,6.677c5.215,47.957,18.743,68.934,47.826,93.405
				c15.651,13.143,40.874,23.969,62.469,26.98c47.42,6.6,126.12-21.884,142.135-34.332c8.473-6.581,8.264,11.156,6.952,21.807
				c-1.331,10.654-6.235,15.979-15.031,21.344C1251.509,1178.048,1233.333,1185.689,1214.453,1190.88z"/>
		</g>
		<g>
			<g>
				<path style="fill:#F6884F;" d="M1101.054,990.172c-67.046-17.331-143.699-164.446-131.526-190.579
					c7.996-9.553,62.941,27.774,90.067,45.046c21.29,13.548,45.588,23.776,69.576,31.882c15.765,10.75,11.695,42.265,5.287,64.71
					C1127.286,966.376,1113.311,993.355,1101.054,990.172z"/>
				<path style="fill:#F1CB99;" d="M1118.192,943.391c-5.001,9.419-11.504,16.368-18.778,17.349
					c-19.662-6.966-41.084-24.682-60.178-45.504c-0.632-0.657-1.253-1.334-1.814-1.99c-32.652-36.28-58.03-81.441-55.154-97.266
					c0.018-0.211,0.078-0.406,0.155-0.617c0.054-0.657,0.268-1.236,0.555-1.776c6.719-7.489,51.221,24.704,74.732,38.715
					c18.468,10.94,42.956,20.515,61.365,31.726C1131.892,891.784,1128.766,923.263,1118.192,943.391z"/>
				<path style="fill:#E8DFE1;" d="M1118.192,943.391c-5.001,9.419-11.504,16.368-18.778,17.349
					c-19.662-6.966-41.084-24.682-60.178-45.504c-0.632-0.657-1.253-1.334-1.814-1.99c-32.306-37.402-57.678-81.904-55.154-97.266
					c0.018-0.211,0.078-0.406,0.155-0.617c0.054-0.657,0.268-1.236,0.555-1.776c1.122,0,22.007,38.792,39.007,58.474
					c11.332,13.337,29.376,30.05,43.231,41.012C1076.972,922.491,1102.845,935.633,1118.192,943.391z"/>
			</g>
			<path style="fill:#F6884F;" d="M1018.876,1076.862c0.931,2.435,1.856,4.884,2.971,7.238
				c20.575,42.981,46.531,67.759,95.748,77.948c32.054,6.641,70.304-4.052,97.287-13.294
				c41.298-14.166,81.576-37.151,123.375-62.222c61.974-37.189,115.97-119.171,107.288-161.975
				c-18.378-90.378-85.4-50.968-156.904-37.423c-83.7-93.945-291.975-15.323-291.706,98.367
				C996.995,1005.669,1008.649,1051.311,1018.876,1076.862z"/>
			<path style="fill:#FFDCA6;" d="M1448.242,922.258c-20.896-95.953-88.097-48.671-159.601-35.125
				c-23.099-25.936-55.739-38.673-90.837-41.202c0.251,0.233,0.501,0.423,0.752,0.638c60.673,7.7,103.242,94.023,101.666,151.784
				c-1.044,38.195-17.101,74.746-44.526,103.734c-16.696,17.639-35.969,38.136-57.856,52.087c5.752-0.83,11.289-3.494,17.042-5.421
				c42.748-14.36,82.423-27.559,122.951-54.599C1446.464,1021.666,1458.357,968.655,1448.242,922.258z"/>
			<g>
				
					<path style="fill:none;stroke:#4A403E;stroke-width:10.0606;stroke-linecap:round;stroke-linejoin:round;stroke-miterlimit:10;" d="
					M1242.212,922.181c-18.199-18.179-46.841,0.868-29.436,24.838"/>
			</g>
			<g>
				
					<path style="fill:none;stroke:#4A403E;stroke-width:5.7809;stroke-linecap:round;stroke-linejoin:round;stroke-miterlimit:10;" d="
					M1383.631,960.972c29.006,10.577,80.209-16.135,53.244-63.648"/>
			</g>
			<g>
				<path style="fill:#4A403E;" d="M1424.738,864.207c9.553,14.956,16.093,24.993,14.166,32.807
					c-1.677,6.737-21.368,7.471-29.818,6.388c-18.76-2.41-61.293-29.295-41.918-39.021
					C1386.101,854.905,1411.384,843.269,1424.738,864.207z"/>
				<path style="opacity:0.3;fill:#BEC0C2;" d="M1403.12,857.065c1.659-0.307,9.75-1.408,9.75,2.375
					c0,3.204-7.137,5.134-9.303,5.771c-3.783,1.119-7.584,2.008-11.582,2.954c-2.626,0.617-8.473,0.095-5.478-3.61
					c1.719-2.103,4.464-3.24,7.023-4.398C1396.568,858.766,1399.742,857.721,1403.12,857.065z"/>
			</g>
			<g>
				<path style="fill:#F6884F;" d="M1020.153,1059.975c-69.111-4.476-171.995-134.591-164.93-162.555
					c6.063-10.884,67.022,15.479,96.917,27.366c23.451,9.323,49.234,14.804,74.302,18.259c17.507,7.623,19.434,39.332,17.328,62.586
					C1041.444,1031.664,1032.773,1060.787,1020.153,1059.975z"/>
				<path style="fill:#F1CB99;" d="M1028.197,1010.803c-3.127,10.171-8.216,18.239-15.186,20.572
					c-20.628-3.166-44.986-16.559-67.643-33.424c-0.734-0.54-1.485-1.083-2.16-1.624c-38.869-29.507-72.255-69.107-72.392-85.203
					c-0.036-0.194-0.018-0.406,0.018-0.618c-0.054-0.656,0.042-1.274,0.214-1.853c5.216-8.608,54.945,14.646,80.669,24.008
					c20.187,7.295,46.071,12.081,66.234,19.665C1031.98,957.538,1034.82,989.053,1028.197,1010.803z"/>
				<path style="fill:#E8DFE1;" d="M1028.197,1010.803c-3.127,10.171-8.216,18.239-15.186,20.572
					c-20.628-3.166-44.986-16.559-67.643-33.424c-0.734-0.54-1.485-1.083-2.16-1.624c-38.732-30.685-72.005-69.63-72.392-85.203
					c-0.036-0.194-0.018-0.406,0.018-0.618c-0.054-0.656,0.042-1.274,0.214-1.853c1.098-0.212,28.911,33.968,49.288,50.121
					c13.629,10.979,34.49,24.026,50.142,32.171C983.79,997.989,1011.68,1006.056,1028.197,1010.803z"/>
			</g>
		</g>
		<path style="fill:#7C442D;" d="M935.391,1080.027c-10.675,17.892-4.457,21.538,7.775,43.655
			c13.802,24.934-24.101,32.846-22.365,46.8c4.261,34.469,2.852,31.787-12.352,37.73c-53.286,20.825-154.857-12.254-212.332-1.757
			c-43.512,7.972-79.141-75.4-161.373-95.664c-19.453-4.786-0.25-87.618-69.135-106.029
			c-54.145-14.473-64.778-85.687-51.949-137.738c7.238-29.411,28.564-70.268,54.867-95.858
			c29.877,3.956,59.366,13.375,87.077,26.383c65.579,30.647,293.807,208.215,391.929,235.911
			C952.588,1044.884,944.658,1064.474,935.391,1080.027z"/>
		<g>
			<path style="fill:#F6884F;" d="M462.101,1062.6c75.865,108.055,21.207,302.456-5.251,345.201
				c-9.917,16.018,34.86,18.471,31.787,65.581c-33.714,2.894-51.663,1.813-83.008,0c-33.38-18.895-200.839-344.915-187.622-462.89
				L462.101,1062.6z"/>
			<path style="fill:#FFDCA6;" d="M456.85,1407.801c9.595-15.515,21.04-43.112,28.117-77.098
				c-15.55-23.585-62.565-26.807-89.697-24.065c-29.62,2.99-57.69,11-70.805,35.856c34.985,69.844,68.197,123.551,81.164,130.888
				c31.345,1.813,49.294,2.894,83.008,0C491.71,1426.272,446.933,1423.819,456.85,1407.801z"/>
			
				<path style="fill:none;stroke:#DDB588;stroke-width:5.8357;stroke-linecap:round;stroke-linejoin:round;stroke-miterlimit:10;" d="
				M482.02,1469.695c1.349-7.43-5.018-17.949-10.27-22.04"/>
			
				<path style="fill:none;stroke:#DDB588;stroke-width:5.8357;stroke-linecap:round;stroke-linejoin:round;stroke-miterlimit:10;" d="
				M461.887,1471.025c1.354-7.447-3.682-16.036-8.915-20.109"/>
		</g>
	</g>
	<g>
		<g>
			<path style="fill:#F89F65;" d="M1663.427,693.719c0,0-1.694,0.907-4.821,2.617c-4.076,2.217-9.404,5.054-16.714,8.53
				c-7.333,3.473-16.558,7.593-28.29,11.567c-11.737,3.92-26.112,7.838-43.739,9.178c-17.447,1.39-38.726-0.609-58.764-8.599
				c-9.977-3.917-19.453-9.117-27.985-15.147c-55.387-39.284-73.336-118.294-72.739-182.472
				c0.334-37.306-14.918-73.906-47.63-93.573c-18.677-11.23-60.231-18.662-48.399-49.914c12.621-33.38,59.689-10.412,80.341,0.79
				c10.443,5.663,22.442,11.848,31.5,19.492c41.256,34.806,44.347,53.826,66.103,113.815c10.896,30.578,12.805,65.181,29.173,93.91
				c20.592,36.214,57.027,2.989,81.826-11.504c26.828-15.678,61.126-11.212,79.977,14.911c19.029,26.41,13.062,63.269-13.354,82.337
				c-1.987,1.438-4.052,2.733-6.158,3.882L1663.427,693.719z"/>
			
				<path style="fill:none;stroke:#E0885A;stroke-width:4.459;stroke-linecap:round;stroke-linejoin:round;stroke-miterlimit:10;" d="
				M1322.182,375.257c5.692-0.812,16.732,1.542,19.082,6.185"/>
			
				<path style="fill:none;stroke:#E0885A;stroke-width:4.459;stroke-linecap:round;stroke-linejoin:round;stroke-miterlimit:10;" d="
				M1329.594,363.454c5.692-0.809,16.713,1.525,19.071,6.176"/>
		</g>
		<path style="fill:#F89F65;" d="M2451.043,1241.001c-1.933-21.75-7.841-44.329-18.295-64.537
			c-2.554-5.066-5.442-9.929-8.497-14.637c-1.468-2.393-3.145-4.63-4.708-6.919c-1.641-2.324-3.669-4.932-5.537-7.325l-4.768-5.615
			l-6.468-7.035c-4.38-4.284-8.831-8.25-13.33-11.657c-18.009-13.634-35.916-21.633-53.095-27.839
			c-17.31-6.099-33.594-10.103-50.159-12.689c-7.698-1.223-15.801-1.88-23.176-2.652c-7.232-0.346-14.417-0.994-20.92-1.041
			c-13.199-0.397-25.014-0.349-35.302-0.108c-10.108,0.221-18.927,0.424-26.183,0.588c-6.779,0.173-12.22,0.28-16.231,0.224
			c-3.903-0.009-5.985-0.009-5.985-0.009h-0.137c-13.772-0.06-25.802,10.102-27.729,24.131
			c-2.083,15.296,8.586,29.385,23.892,31.467c0,0,2.047,0.28,5.901,0.811c3.748,0.558,9.691,1.274,17.388,2.121
			c7.262,0.794,16.039,1.778,26.136,2.915c9.899,1.169,20.861,2.443,32.461,4.189c5.908,0.761,11.558,2.026,17.663,3.049
			c5.842,1.39,11.552,2.441,17.752,4.285c11.308,3.377,23.969,7.933,35.432,13.664c11.523,5.645,22.406,12.745,29.585,19.954
			c1.814,1.796,3.223,3.542,4.553,5.183c0.466,0.829,1.002,1.611,1.546,2.363c0.519,0.695-0.675-0.868-0.502-0.626l0.114,0.164
			l0.191,0.328l0.429,0.656l0.812,1.304c0.519,0.83,1.217,1.871,1.563,2.506l3.031,6.719c1.038,2.506,1.981,4.998,2.721,7.554
			c6.152,20.07,3.413,42.575-4.81,64.334c-2.16,5.771-4.69,11.394-7.429,16.836c-6.617,9.151-14.363,18.441-18.218,23.507
			c-8.784,11.579-22.925,17.958-34.8,26.738c2.202,0.505,5.06,2.742,7.937,3.079c-14.858,7.39-33.738,11.484-49.945,16.174
			c3.974,1.158,11.886,6.254,15.61,7.525c-17.52,7.951-28.116,27.368-46.412,35.531c4.702,1.542,15.825-0.656,21.112-0.385
			c-14.452,16.559-17.716,21.66-21.636,32.276c-4.356,11.851-6.254,37.596-3.187,50.679c2.745-4.264,11.875-17.406,16.314-19.267
			c7.292,20.475-3.437,36.396-14.094,56.517c16.946-5.376,24.936-13.086,38.911-21.347c3.145,4.392,2.775,16.058,4.207,21.347
			c6.176-5.26,21.541-19.465,24.799-25.853c4.475,3.697-0.716,14.301,5.383,21.064c8.378-7.167,29.644-19.315,39.12-26.756
			c0.68,3.965-1.08,14.425,0,18.217c27.926-13.086,42.211-35.597,57.648-61.293c3.377,2.643,10.27,9.216,14.9,10.153
			c2.834-20.73,16.863-43.753,21.302-63.725c1.545,3.667,4.016,16.568,6.85,19.483c11.988-20.969,10.848-59.009,14.572-83.026
			c3.162-9.921,5.967-20.294,8.127-31.244C2451.211,1283.806,2452.953,1262.798,2451.043,1241.001z"/>
		<path style="fill:#FDC382;" d="M2420.51,1339.088c-8.933,5.445-24.161-1.525-26.864-1.814
			c-14.208-1.543-14.768-12.88-26.058-21.613c-12.292-9.515-32.651,5.045-45.678,0c-0.4,0.519-0.829,1.05-1.176,1.504
			c-8.784,11.579-22.925,17.958-34.8,26.738c2.202,0.505,5.06,2.742,7.937,3.079c-14.858,7.39-33.738,11.484-49.945,16.174
			c3.974,1.158,11.886,6.254,15.61,7.525c-17.52,7.951-28.116,27.368-46.412,35.531c4.702,1.542,15.825-0.656,21.112-0.385
			c-14.452,16.559-17.716,21.66-21.636,32.276c-4.356,11.851-6.254,37.596-3.187,50.679c2.745-4.264,11.875-17.406,16.314-19.267
			c7.292,20.475-3.437,36.396-14.094,56.517c16.946-5.376,24.936-13.086,38.911-21.347c3.145,4.392,2.775,16.058,4.207,21.347
			c6.176-5.26,21.541-19.465,24.799-25.853c4.475,3.697-0.716,14.301,5.383,21.064c8.378-7.167,29.644-19.315,39.12-26.756
			c0.68,3.965-1.08,14.425,0,18.217c27.926-13.086,42.211-35.597,57.648-61.293c3.377,2.643,10.27,9.216,14.9,10.153
			c2.834-20.73,16.863-43.753,21.302-63.725c1.545,3.667,4.016,16.568,6.85,19.483c11.988-20.969,10.848-59.009,14.572-83.026
			c0.429-1.342,0.793-2.751,1.199-4.112C2432.975,1328.454,2430.004,1333.309,2420.51,1339.088z"/>
		<path style="fill:#EA8A59;" d="M1772.278,1107.547c-3.169,59.163,25.061,131.696,115.988,182.425
			c13.116,7.324,27.807,13.587,33.44,28.91c5.382,14.56,1.814,31.998-13.545,38.888c-11.314,5.066-76.426-2.237-74.708,19.965
			c1.235,16.132,39.311,14.288,70.423,14.175c17.269-0.087,39.585,1.551,50.41-6.176c14.894-10.645,21.958-41.465,31.613-56.162
			c14.822-22.559,22.496-46.778,52.975-66.291"/>
		<path style="fill:#F89F65;" d="M2186.178,1201.487c-9.589,23.409-28.212,51.075-33.44,76.471
			c-4.69,22.716,12.257,86.537,3.24,106.357c-6.796,14.968-34.758,12.304-53.555,11.677c-34.507-1.169-22.83-23.969-6.217-37.95
			c12.793-10.788-5.651-43.115-49.849-70.811c-31.865-19.984-82.716-8.133-133.698-42.939"/>
		<g>
			<g>
				<g>
					<path style="fill:#F89F65;" d="M1763.996,378.121c-31.84,3.589-60.775,17.391-80.305,25.921
						c-38.189,16.711-109.597,114.472-110.063,252.082c-0.483,163.551,67.1,310.908,162.537,439.287
						c95.318,115.57,151.958,154.168,251.811,166.424c56.937,10.257,152.912,0.531,191.644-50.476
						c32.866-43.261,24.029-108.153,12.907-152.927c-6.402-25.676-17.543-50.475-31.607-73.374
						c-33.231-54.232-210.745-235.884-244.596-318.782c-2.184-5.251-3.765-10.105-4.672-14.542
						c-12.489-59.315-16.809-120.504-14.512-155.069C1900.88,440.08,1814.925,372.36,1763.996,378.121z"/>
				</g>
			</g>
		</g>
		<g>
			<g>
				<g>
					<path style="fill:#EAE8DE;" d="M2192.526,1058.432c-6.402-25.676-17.543-50.475-31.607-73.374
						c-33.231-54.232-210.745-235.884-244.596-318.782c-2.184-5.251-3.765-10.105-4.672-14.542
						c-12.489-59.315-16.809-120.504-14.512-155.069c3.741-56.585-82.214-124.306-133.144-118.545
						c-31.84,3.589-60.775,17.391-80.305,25.921c-38.189,16.711-109.597,114.472-110.063,252.082
						c-0.25,83.199,12.895,151.325,42.593,225.782c33.774,14.542,103.344,25.473,148.717,11.799
						c31.494-9.497,58.322-29.761,76.546-57.299c9.571-14.446,17.734-32.798,30.951-44.467
						c65.793-58.059,154.296,45.141,184.245,97.585c22.234,38.929,35.63,86.066,32.771,131.177
						c-2.697,43.008-18.044,68.308-43.786,101.118c-27.807,35.415-50.374,69.448-96.357,80.854
						c-32.657,8.106-64.271,16.702-97.346,8.906c7.411,4.979,30.957,21.806,61.7,33.562c20.515,13.458,52.391,24.885,77.178,26.863
						c90.139,17.92,152.804-4.487,189.938-58.611c1.563-4.344,4.648-10.344,7.023-14.754
						C2210.81,1156.095,2202.611,1099,2192.526,1058.432z"/>
				</g>
			</g>
		</g>
		<path style="fill:#FDC382;" d="M1592.371,544.402c-15.908,2.336-53.477,41.561-51.758,81.994
			c5.442,0.626,16.517-6.612,21.052-5.752c-7.936,13.056-31.303,28.379-25.611,46.28c3.861,4.293,16.505-2.819,19.936-4.219
			c-9.207,21.896-29.853,33.311-27.347,50.815c0.871,5.567,11.928,9.272,15.204,6.54c-2.984,18.924-6.671,37.703-4.32,57.522
			c6.6-3.762,10.926-0.579,17.436-7.354c-0.8,15.15,0.8,29.827,9.511,40.192c26.721-36.214,43.649,24.19,56.866-19.31
			c17.412,18.981,23.588,24.444,39.299,19.31c7.005-2.286,4.744-11.851,14.858-13.567c5.31-0.88,18.873,15.389,31.924,15.389
			c9.738,0,12.924-16.451,13.856-23.69c29.56,17.708,31.321,11.544,45.135-13.769c22.388,25.33,28.916-6.862,45.302-10.189
			c12.865-2.607,21.493,25.849,33.559,10.189c16.541-26.237,24.871,2.065,44.252-6.784c2.626-4.669,11.159-20.542,11.66-27.625
			c17.543,4.66,22.556-19.223,17.174-48.954c13.432,12.256,21.135-23.699,8.604-36.011c17.065-7.304,11.773-23.901-4.535-29.952
			c2.805-2.729,12.083-3.407,11.886-10.615c-0.824-6.879-16.421-19.201-25.432-24.847c11.349-21.594-16.421-29.208-27.699-39.475
			L1592.371,544.402z"/>
		<path style="fill:#EAE8DE;" d="M1741.786,617.487c55.518,2.569,122.433-7.671,167.007-48.238
			c-6.731-7.563-18.987-12.698-25.611-18.727l-290.811-6.12c-7.101,1.041-18.528,9.485-28.833,22.069
			C1604.233,605.437,1683.309,614.796,1741.786,617.487z"/>
		<g>
			<g>
				<path style="fill:#E1905C;" d="M1649.858,320.62c4.481-36.396,29.179-111.933,40.624-114.606
					c11.874,0.086,56.203,71.581,64.868,103.143c-19.262,3.088-30.689,2.578-50.756,4.652L1649.858,320.62z"/>
			</g>
			<path style="fill:#F89F65;" d="M1925.667,475.835c-3.962,26.757-9.344,63.194-26.422,82.599
				c-39.854,45.341-115.606,51.681-194.652,41.569c-95.741-12.244-185.331-20.109-165.741-139.919
				c7.739-15.669,17.025-27.839,30.844-34.111c39.156-113.333,106.583-152.954,209.158-130.712
				C1881.428,317.505,1940.293,376.492,1925.667,475.835z"/>
			<path style="fill:#FDC382;" d="M1755.522,543.111c4.69-15.526,2.1-45.517-6.928-58.468
				c-28.487-40.788-107.807-18.836-109.131-21.276c-10.908-20.004-46.418-35.394-69.767-37.392
				c-14.285,4.998-26.542,19.954-30.844,34.111c-32.073,112.978,68.472,133.423,165.741,139.919
				C1720.376,601.066,1747.455,569.945,1755.522,543.111z"/>
			<g>
				
					<path style="fill:none;stroke:#A76C3D;stroke-width:3.4172;stroke-linecap:round;stroke-linejoin:round;stroke-miterlimit:10;" d="
					M1584.321,488.763c-5.71,30.918,42.689,47.554,52.087-2.42"/>
				
					<path style="fill:none;stroke:#A76C3D;stroke-width:3.4172;stroke-linecap:round;stroke-linejoin:round;stroke-miterlimit:10;" d="
					M1679.848,518.126c-7.274,24.337-58.322,17.66-43.44-31.783"/>
			</g>
			<g>
				<path style="fill:#F58870;" d="M1663.504,468.095c0.83,9.804-16.809,17.29-21.44,19.038c-6.528,2.497-10.191,2.566-15.479-3.001
					c-4.439-4.66-13.701-21.983-8.413-28.526C1626.741,444.964,1662.848,460.335,1663.504,468.095z"/>
				<path style="opacity:0.3;fill:#BEC0C2;" d="M1643.491,458.387c1.415,0.54,8.014,3.386,6.003,5.606
					c-1.719,1.883-8.086-0.048-10.031-0.627c-3.437-0.984-6.755-2.095-10.252-3.282c-2.255-0.761-6.349-3.619-2.124-4.496
					c2.393-0.51,5.06,0.018,7.602,0.444C1637.703,456.535,1640.621,457.296,1643.491,458.387z"/>
			</g>
			<g>
				
					<path style="fill:none;stroke:#A76C3D;stroke-width:6.8344;stroke-linecap:round;stroke-linejoin:round;stroke-miterlimit:10;" d="
					M1743.481,446.739c-7.316-25.02-40.856-20.765-48.25-6.426"/>
			</g>
			<g>
				
					<path style="fill:none;stroke:#A76C3D;stroke-width:6.8344;stroke-linecap:round;stroke-linejoin:round;stroke-miterlimit:10;" d="
					M1584.321,404.561c15.938-20.64,45.643-4.467,47.302,11.561"/>
			</g>
			<g>
				<path style="fill:#F89F65;" d="M1891.273,410.871c14.011-36.128,35.027-130.392,25.706-138.615
					c-11.117-5.827-100.915,49.195-124.747,74.254c0.883-0.937,12.328,24.018,36.244,40.257
					C1849.009,400.683,1875.89,410.871,1891.273,410.871z"/>
				<path style="fill:#F58870;" d="M1913.984,327.046c-0.287,1.709-0.632,3.493-0.96,5.251
					c-5.054,26.043-13.611,57.212-20.223,74.57c-7.877-0.877-14.631-2.112-20.98-3.965c-7.799-2.258-14.977-5.248-22.639-9.497
					c-7.852-4.371-19.089-11.355-24.763-18.391c-2.602-3.213-15.133-15.371-10.884-21.153
					c19.226-26.052,91.69-69.465,101.751-64.757c0.054,0,0.131,0.068,0.131,0.068c0.131,0.134,0.346,0.337,0.483,0.561
					C1918.698,293.756,1917.403,308.656,1913.984,327.046z"/>
				<path style="fill:#E8DFE1;" d="M1913.984,327.046c-0.287,1.709-0.632,3.493-0.96,5.251
					c-5.054,26.043-13.611,57.212-20.223,74.57c-7.877-0.877-14.631-2.112-20.98-3.965l-0.274-0.271
					c9.613-9.291,19.942-30.134,24.536-41.751c9.977-25.226,12.907-44.022,19.118-70.531c0.138-0.412,0.084-0.838,0.084-1.244
					c0.054,0,0.131,0.068,0.131,0.068c0.131,0.134,0.346,0.337,0.483,0.561C1918.424,293.902,1917.194,308.521,1913.984,327.046z"/>
			</g>
		</g>
		<g>
			<path style="fill:#F89F65;" d="M1854.588,728.477c0,0-0.137,1.727-0.37,4.958c-0.268,4.18-0.692,9.601-1.581,16.869
				c-0.924,7.294-2.261,16.326-4.922,27.21c-2.721,10.848-6.719,23.719-14.244,37.798c-7.429,13.993-19.279,29.266-35.104,40.654
				c-7.817,5.692-16.404,10.413-25.145,13.972c-41.746,17.206-85.688-0.021-125.308-14.84c-12.776-4.759-25.229-9.506-37.211-13.79
				c-9.571-3.425-32.902-8.085-37.169-13.056c-21.517,11.388-30.88,37.634-41.775,57.886c-5.346,9.903-8.246,15.837-8.246,15.837
				c-5.848,11.965-20.3,16.935-32.288,11.087c-10.747-5.26-15.867-17.427-12.561-28.534l0.096-0.337c0,0,1.969-6.659,5.979-18.441
				c4.111-11.761,10.037-28.686,20.789-49.094c28.946-54.927,69.517-59.432,125.828-46.89c13.528,3.088,26.822,6.409,39.854,9.583
				c19.954,4.824,39.734,11.656,60.518,11.164c-1.134,0-2.28,0.174-3.437,0.203c26.541-10.451,18.975-43.308,19.822-65.578
				c1.08-28.072,21.135-52.06,50.195-53.739c29.418-1.697,54.623,20.747,56.317,50.139c0.131,2.241,0.131,4.431-0.018,6.602
				L1854.588,728.477z"/>
			
				<path style="fill:none;stroke:#E0885A;stroke-width:4.459;stroke-linecap:round;stroke-linejoin:round;stroke-miterlimit:10;" d="
				M1486.981,904.533c-1.063-5.665,0.764-16.779,5.31-19.339"/>
			
				<path style="fill:none;stroke:#E0885A;stroke-width:4.459;stroke-linecap:round;stroke-linejoin:round;stroke-miterlimit:10;" d="
				M1499.929,910.688c-1.062-5.662,0.776-16.779,5.305-19.345"/>
		</g>
		
			<path style="fill:none;stroke:#E0885A;stroke-width:5.1258;stroke-linecap:round;stroke-linejoin:round;stroke-miterlimit:10;" d="
			M2103.021,1392.344c-2.184-6.215-2.029-19.181,2.703-22.878"/>
		
			<path style="fill:none;stroke:#E0885A;stroke-width:5.1258;stroke-linecap:round;stroke-linejoin:round;stroke-miterlimit:10;" d="
			M2131.507,1392.179c2.643-6.05,3.473-18.99-0.943-23.023"/>
	</g>
</g>
</svg>
